<svg width="220" height="220" viewBox="0 0 220 220" fill="none" xmlns="http://www.w3.org/2000/svg">
<circle cx="110" cy="110" r="110" fill="#0B1120"/>
<path d="M87.576 98.592C86.488 96.8 84.984 95.424 83.064 94.464C81.208 93.504 79 93.024 76.44 93.024C71.704 93.024 67.96 94.56 65.208 97.632C62.52 100.704 61.176 104.832 61.176 110.016C61.176 115.84 62.616 120.288 65.496 123.36C68.44 126.368 72.696 127.872 78.264 127.872C84.856 127.872 89.56 124.896 92.376 118.944H73.464V105.408H108.6V123.648C107.128 127.232 104.952 130.592 102.072 133.728C99.256 136.864 95.672 139.456 91.32 141.504C86.968 143.488 82.008 144.48 76.44 144.48C69.656 144.48 63.64 143.04 58.392 140.16C53.208 137.216 49.176 133.152 46.296 127.968C43.48 122.72 42.072 116.736 42.072 110.016C42.072 103.36 43.48 97.44 46.296 92.256C49.176 87.008 53.208 82.944 58.392 80.064C63.576 77.12 69.56 75.648 76.344 75.648C84.856 75.648 91.896 77.696 97.464 81.792C103.032 85.888 106.488 91.488 107.832 98.592H87.576ZM142.568 144.672C134.696 144.672 128.232 142.816 123.176 139.104C118.12 135.328 115.4 129.952 115.016 122.976H135.08C135.272 125.344 135.976 127.072 137.192 128.16C138.408 129.248 139.976 129.792 141.896 129.792C143.624 129.792 145.032 129.376 146.12 128.544C147.272 127.648 147.848 126.432 147.848 124.896C147.848 122.912 146.92 121.376 145.064 120.288C143.208 119.2 140.2 117.984 136.04 116.64C131.624 115.168 128.04 113.76 125.288 112.416C122.6 111.008 120.232 108.992 118.184 106.368C116.2 103.68 115.208 100.192 115.208 95.904C115.208 91.552 116.296 87.84 118.472 84.768C120.648 81.632 123.656 79.264 127.496 77.664C131.336 76.064 135.688 75.264 140.552 75.264C148.424 75.264 154.696 77.12 159.368 80.832C164.104 84.48 166.632 89.632 166.952 96.288H146.504C146.44 94.24 145.8 92.704 144.584 91.68C143.432 90.656 141.928 90.144 140.072 90.144C138.664 90.144 137.512 90.56 136.616 91.392C135.72 92.224 135.272 93.408 135.272 94.944C135.272 96.224 135.752 97.344 136.712 98.304C137.736 99.2 138.984 100 140.456 100.704C141.928 101.344 144.104 102.176 146.984 103.2C151.272 104.672 154.792 106.144 157.544 107.616C160.36 109.024 162.76 111.04 164.744 113.664C166.792 116.224 167.816 119.488 167.816 123.456C167.816 127.488 166.792 131.104 164.744 134.304C162.76 137.504 159.848 140.032 156.008 141.888C152.232 143.744 147.752 144.672 142.568 144.672Z" fill="url(#paint0_linear_124_31)"/>
<defs>
<linearGradient id="paint0_linear_124_31" x1="39" y1="109.5" x2="172" y2="111" gradientUnits="userSpaceOnUse">
<stop stop-color="#818CF7"/>
<stop offset="1" stop-color="#37D19C"/>
</linearGradient>
</defs>
</svg>
